<?xml version="1.0" encoding="utf-8"?>
<!-- Generator: Adobe Illustrator 26.0.3, SVG Export Plug-In . SVG Version: 6.00 Build 0)  -->
<svg version="1.1" id="Layer_1" xmlns="http://www.w3.org/2000/svg" xmlns:xlink="http://www.w3.org/1999/xlink" x="0px" y="0px"
	 viewBox="0 0 551 140" style="enable-background:new 0 0 551 140;" xml:space="preserve">
<style type="text/css">
	.st0{fill:#FC4C02;}
	.st1{display:none;}
	.st2{display:inline;}
</style>
<g id="Layer_2_00000174574030053510136080000009802416868587254426_">
</g>
<g id="Layer_1_00000064340542586539432090000000589398576292268706_">
	<g>
		<path class="st0" d="M356.2,45.5c-14.3,0-25,10.6-25,24.6s10.6,24.6,25,24.6c14.3,0,25-10.6,25-24.6S370.5,45.5,356.2,45.5z
			 M356.2,87.4c-10,0-17-7-17-17.3s7-17.3,17-17.3c9.9,0,17,7,17,17.3S366.1,87.4,356.2,87.4z"/>
		<path class="st0" d="M431.1,93.5h6.9c0.2,0,0.4-0.2,0.4-0.4V73.9c0-0.2,0.2-0.4,0.4-0.4h7.4c0.1,0,0.2,0.1,0.3,0.2l13.8,19.7
			c0.1,0.1,0.2,0.2,0.3,0.2h8.5c0.3,0,0.5-0.3,0.3-0.6L453,69.5c-0.1-0.1-0.1-0.3,0-0.4l15.7-21.5c0.2-0.2,0-0.6-0.3-0.6h-8.1
			c-0.1,0-0.2,0.1-0.3,0.1l-13.8,19c-0.1,0.1-0.2,0.1-0.3,0.1h-7.1c-0.2,0-0.4-0.2-0.4-0.4V47.3c0-0.2-0.2-0.4-0.4-0.4h-6.9
			c-0.2,0-0.4,0.2-0.4,0.4v45.9C430.8,93.4,430.9,93.5,431.1,93.5z"/>
		<path class="st0" d="M417.1,53.7V47c0-0.2-0.2-0.4-0.4-0.4h-30c-0.2,0-0.4,0.2-0.4,0.4v46.1c0,0.2,0.2,0.4,0.4,0.4h6.8
			c0.2,0,0.4-0.2,0.4-0.4v-19c0-0.2,0.2-0.4,0.4-0.4h22.5c0.2,0,0.4,0.2,0.4,0.4v19c0,0.2,0.2,0.4,0.4,0.4h6.8
			c0.2,0,0.4-0.2,0.4-0.4V74c0-0.2-0.2-0.4-0.4-0.4h-6.7c-0.2,0-0.4-0.2-0.4-0.4v-6.7c0-0.2,0.2-0.4,0.4-0.4h6.7
			c0.2,0,0.4-0.2,0.4-0.4V54.4c0-0.2-0.2-0.4-0.4-0.4h-6.7C417.2,54,417.1,53.9,417.1,53.7z M417.1,55.2v9.2v1.5
			c0,0.2-0.2,0.4-0.4,0.4h-2.4h-20.1c-0.2,0-0.4-0.2-0.4-0.4v-6v-5.4c0-0.2,0.2-0.4,0.4-0.4h22.5c0.2,0,0.4,0.2,0.4,0.4V55.2z"/>
		<g>
			<path class="st0" d="M318.2,47v38.5c0,0.2-0.2,0.4-0.4,0.4h-13.3c-0.2,0-0.4-0.2-0.4-0.4V47c0-0.2-0.2-0.4-0.4-0.4H297
				c-0.2,0-0.4,0.2-0.4,0.4v38.5c0,0.2-0.2,0.4-0.4,0.4h-13.7c-0.2,0-0.4-0.2-0.4-0.4l0.1-38.5c0-0.2-0.2-0.4-0.4-0.4H275
				c-0.2,0-0.4,0.2-0.4,0.4v38.5c0,0.2,0.2,0.4,0.4,0.4h6.6c0.2,0,0.4,0.2,0.4,0.4v6.6c0,0.2,0.2,0.4,0.4,0.4h13.8
				c0.2,0,0.4-0.2,0.4-0.4v-6.7c0-0.2,0.2-0.4,0.4-0.4h6.7c0.2,0,0.4,0.2,0.4,0.4v6.7c0,0.2,0.2,0.4,0.4,0.4h20.7
				c0.2,0,0.4-0.2,0.4-0.4V47c0-0.2-0.2-0.4-0.4-0.4h-6.7C318.4,46.7,318.2,46.8,318.2,47z"/>
		</g>
		<path class="st0" d="M96.6,70c0-10.3,7-17.3,17-17.3c9.9,0,17,7,17,17.3s-7.1,17.3-17,17.3C103.6,87.3,96.6,80.3,96.6,70z
			 M88.6,70c0,14,10.6,24.6,25,24.6c14.3,0,25-10.6,25-24.6s-10.6-24.6-25-24.6C99.2,45.3,88.6,56,88.6,70z"/>
		<path class="st0" d="M260.4,66h-22.3c-0.2,0-0.4-0.2-0.4-0.4V47c0-0.2-0.2-0.4-0.4-0.4h-6.9c-0.2,0-0.4,0.2-0.4,0.4v45.9
			c0,0.2,0.2,0.4,0.4,0.4h6.9c0.2,0,0.4-0.2,0.4-0.4V73.6c0-0.2,0.2-0.4,0.4-0.4h22.3c0.2,0,0.4,0.2,0.4,0.4v19.3
			c0,0.2,0.2,0.4,0.4,0.4h6.9c0.2,0,0.4-0.2,0.4-0.4V47c0-0.2-0.2-0.4-0.4-0.4h-6.9c-0.2,0-0.4,0.2-0.4,0.4v18.6
			C260.8,65.8,260.6,66,260.4,66z"/>
		<path class="st0" d="M187.5,54h14.6c0.2,0,0.4,0.2,0.4,0.4V93c0,0.2,0.2,0.4,0.4,0.4h6.9c0.2,0,0.4-0.2,0.4-0.4V54.3
			c0-0.2,0.2-0.4,0.4-0.4h14.6c0.2,0,0.4-0.2,0.4-0.4v-6.6c0-0.2-0.2-0.4-0.4-0.4h-37.6c-0.2,0-0.4,0.2-0.4,0.4v6.6
			C187.1,53.8,187.3,54,187.5,54z"/>
		<path class="st0" d="M467.5,79.3c-0.2,0-0.4,0.2-0.4,0.4c0.6,2.7,1.6,5.1,3.1,7.2c2.7,3.9,7.7,7.7,16.4,7.7
			c11.6,0,18.3-6.7,18.3-14.3c0-10.1-10.9-12.1-19.1-14.5c-4.9-1.3-8.9-3.2-8.9-6.8c0-3.7,3-6.7,9.3-6.7c4.7,0,7.3,1.7,8.7,3.3
			c0.7,0.9,1.3,1.9,1.6,3.1c0,0.2,0.2,0.3,0.3,0.3h7.3c0.2,0,0.4-0.2,0.3-0.4c-0.6-2.4-1.6-4.5-3-6.3c-2.5-3.4-7.1-6.9-15.2-6.9
			c-10.6,0-17.3,6.7-17.3,14c0,10.2,10.9,12.4,19.1,14.6c4.9,1.3,8.9,3.1,8.9,6.7c0,4-2.9,7-10.3,7c-5.3,0-8.1-2.1-9.7-4.1
			c-0.9-1.1-1.5-2.4-1.9-3.9c0-0.2-0.2-0.3-0.3-0.3L467.5,79.3L467.5,79.3z"/>
		<path class="st0" d="M174.8,85.4c0,0.2-0.2,0.4-0.4,0.4h-23.1c-0.2,0-0.4-0.2-0.4-0.4V47c0-0.2-0.2-0.4-0.4-0.4h-6.7
			c-0.2,0-0.4,0.2-0.4,0.4v45.8c0,0.2,0.2,0.4,0.4,0.4h30.5c0.2,0,0.4-0.2,0.4-0.4v-6.7c0-0.2,0.2-0.4,0.4-0.4h5.4h1.4
			c0.2,0,0.4-0.2,0.4-0.4V47c0-0.2-0.2-0.4-0.4-0.4h-6.8c-0.2,0-0.4,0.2-0.4,0.4L174.8,85.4z"/>
		<path class="st0" d="M53.2,54.4h-6.7c-0.2,0-0.4,0.2-0.4,0.4v19.4c0,0.2,0.2,0.4,0.4,0.4H76c0.2,0,0.4,0.2,0.4,0.4v10.6
			c0,0.2-0.2,0.4-0.4,0.4H46.5c-0.2,0-0.4,0.2-0.4,0.4v6.7c0,0.2,0.2,0.4,0.4,0.4H76c0.2,0,0.4-0.2,0.4-0.4v-6.7
			c0-0.2,0.2-0.4,0.4-0.4h6.7c0.2,0,0.4-0.2,0.4-0.4V66.7c0-0.2-0.2-0.4-0.4-0.4H53.9c-0.2,0-0.4-0.2-0.4-0.4V54.6
			c0-0.2,0.2-0.4,0.4-0.4h29.5c0.2,0,0.4-0.2,0.4-0.4v-6.7c0-0.2-0.2-0.4-0.4-0.4H53.9c-0.2,0-0.4,0.2-0.4,0.4v6.7
			C53.5,54.2,53.4,54.4,53.2,54.4z"/>
	</g>
</g>
<g class="st1">
	<g class="st2">
		<path class="st0" d="M340.1,94v9.8h-1.3v-7.4l-1.4,4.8H336l-1.4-4.8v7.4h-1.3V94h1.7l1.7,5.7l1.7-5.7H340.1z"/>
		<path class="st0" d="M346.8,101.3h-3.5l-0.8,2.5h-1.4l3.1-9.8h1.8l3,9.8h-1.4L346.8,101.3z M346.4,100l-1.4-4.6l-1.4,4.6H346.4z"
			/>
		<path class="st0" d="M353.1,99.2l-1.2,1.5v3.2h-1.4V94h1.4v4.7l3.9-4.7h1.6l-3.4,4l3.5,5.8h-1.6L353.1,99.2z"/>
		<path class="st0" d="M358.8,94h6.2v1.3h-4.8v2.9h4.1v1.3h-4.1v3.2h4.9v1.3h-6.3L358.8,94L358.8,94z"/>
		<path class="st0" d="M375.6,94h6.2v1.3H377v2.9h4.1v1.3H377v3.2h4.9v1.3h-6.3V94z"/>
		<path class="st0" d="M390.9,94l-2.9,9.8h-1.8l-2.9-9.8h1.5l2.3,8.2l2.3-8.2H390.9z"/>
		<path class="st0" d="M392.4,94h6.2v1.3h-4.8v2.9h4.1v1.3h-4.1v3.2h4.9v1.3h-6.3L392.4,94L392.4,94z"/>
		<path class="st0" d="M407.1,100.4v3.4h-1.4v-3.2c0-0.5-0.2-0.8-0.8-0.8h-2.7v3.9h-1.4V94h3.4c1.7,0,3,1.1,3,2.6
			c0,1.2-0.6,2-1.6,2.4h0.1C406.7,99.1,407.1,99.5,407.1,100.4z M405.8,96.9c0-1.1-0.7-1.6-1.9-1.6h-1.7v3.3h1.7
			C405,98.6,405.8,98,405.8,96.9z"/>
		<path class="st0" d="M416.1,94l-3.1,5.9v3.9h-1.4v-3.9l-3-5.9h1.5l2.2,4.6l2.2-4.6H416.1z"/>
		<path class="st0" d="M420,95.3h-2.8V94h7v1.3h-2.8v8.5H420V95.3z"/>
		<path class="st0" d="M425.8,94h1.4v4.3h3.8V94h1.4v9.8H431v-4.3h-3.8v4.3h-1.4L425.8,94L425.8,94z"/>
		<path class="st0" d="M438.2,95.2v7.5h2v1.2h-5.4v-1.2h2v-7.5h-2V94h5.4v1.2H438.2z"/>
		<path class="st0" d="M449.2,94v9.8h-1.6l-3.6-7.5v7.5h-1.4V94h1.7l3.5,7.4V94H449.2z"/>
		<path class="st0" d="M450.7,98.9c0-3,1.2-5,3.9-5c2.2,0,3.2,1.5,3.3,3.4h-1.4c-0.1-1.3-0.7-2.1-1.9-2.1h-0.1
			c-1.6,0-2.4,1.4-2.4,3.8c0,2.2,0.8,3.8,2.5,3.8h0.1c1.1,0,2-0.8,2-2.2v-0.5h-2.1v-1.3h2.3c0.7,0,1,0.4,1,1v4h-1.2v-1
			c-0.4,0.7-1.1,1.2-2.3,1.2C452,104,450.7,101.9,450.7,98.9z"/>
		<path class="st0" d="M474.3,100.4v3.4h-1.4v-3.2c0-0.5-0.2-0.8-0.8-0.8h-2.7v3.9H468V94h3.4c1.7,0,3,1.1,3,2.6
			c0,1.2-0.6,2-1.6,2.4h0.1C473.9,99.1,474.3,99.5,474.3,100.4z M473.1,96.9c0-1.1-0.7-1.6-1.9-1.6h-1.7v3.3h1.7
			C472.2,98.6,473.1,98,473.1,96.9z"/>
		<path class="st0" d="M480.2,95.2v7.5h2v1.2h-5.4v-1.2h2v-7.5h-2V94h5.4v1.2H480.2z"/>
		<path class="st0" d="M484,98.9c0-3,1.2-5,3.9-5c2.2,0,3.2,1.5,3.3,3.4h-1.4c-0.1-1.3-0.7-2.1-1.9-2.1h-0.1c-1.6,0-2.4,1.4-2.4,3.8
			c0,2.2,0.8,3.8,2.5,3.8h0.1c1.1,0,2-0.8,2-2.2v-0.5h-2.1v-1.3h2.3c0.7,0,1,0.4,1,1v4H490v-1c-0.4,0.7-1.1,1.2-2.3,1.2
			C485.4,104,484,101.9,484,98.9z"/>
		<path class="st0" d="M492.8,94h1.4v4.3h3.8V94h1.4v9.8H498v-4.3h-3.8v4.3h-1.4V94z"/>
		<path class="st0" d="M503.7,95.3H501V94h7v1.3h-2.8v8.5h-1.4v-8.5H503.7z"/>
	</g>
	<g class="st2">
		<g>
			<path class="st0" d="M357.1,36.2c-14.5,0-25.3,10.8-25.3,24.9S342.6,86,357.1,86s25.3-10.8,25.3-24.9S371.6,36.2,357.1,36.2z
				 M357.1,78.6c-10.1,0-17.2-7.1-17.2-17.5s7.1-17.5,17.2-17.5c10,0,17.2,7.1,17.2,17.5S367.1,78.6,357.1,78.6z"/>
			<path class="st0" d="M432.9,84.8h7c0.2,0,0.4-0.2,0.4-0.4V65c0-0.2,0.2-0.4,0.4-0.4h7.5c0.1,0,0.2,0.1,0.3,0.2l13.9,19.9
				c0.1,0.1,0.2,0.2,0.3,0.2h8.6c0.3,0,0.5-0.3,0.3-0.6L455,60.4c-0.1-0.1-0.1-0.3,0-0.4l15.9-21.8c0.2-0.2,0-0.6-0.3-0.6h-8.2
				c-0.1,0-0.2,0.1-0.3,0.1L448.2,57c-0.1,0.1-0.2,0.1-0.3,0.1h-7.2c-0.2,0-0.4-0.2-0.4-0.4V38c0-0.2-0.2-0.4-0.4-0.4h-7
				c-0.2,0-0.4,0.2-0.4,0.4v46.5C432.6,84.7,432.7,84.8,432.9,84.8z"/>
			<path class="st0" d="M418.7,44.5v-6.7c0-0.2-0.2-0.4-0.4-0.4H388c-0.2,0-0.4,0.2-0.4,0.4v46.7c0,0.2,0.2,0.4,0.4,0.4h6.8
				c0.2,0,0.4-0.2,0.4-0.4V65.1c0-0.2,0.2-0.4,0.4-0.4h22.8c0.2,0,0.4,0.2,0.4,0.4v19.3c0,0.2,0.2,0.4,0.4,0.4h6.8
				c0.2,0,0.4-0.2,0.4-0.4V65.1c0-0.2-0.2-0.4-0.4-0.4h-6.8c-0.2,0-0.4-0.2-0.4-0.4v-6.8c0-0.2,0.2-0.4,0.4-0.4h6.8
				c0.2,0,0.4-0.2,0.4-0.4V45.2c0-0.2-0.2-0.4-0.4-0.4h-6.8C418.9,44.8,418.7,44.7,418.7,44.5z M418.7,46v9.3v1.6
				c0,0.2-0.2,0.4-0.4,0.4H416h-20.4c-0.2,0-0.4-0.2-0.4-0.4v-6.1v-5.5c0-0.2,0.2-0.4,0.4-0.4h22.8c0.2,0,0.4,0.2,0.4,0.4L418.7,46
				L418.7,46z"/>
			<g>
				<path class="st0" d="M318.6,37.7v38.9c0,0.2-0.2,0.4-0.4,0.4h-13.5c-0.2,0-0.4-0.2-0.4-0.4V37.7c0-0.2-0.2-0.4-0.4-0.4h-6.8
					c-0.2,0-0.4,0.2-0.4,0.4v38.9c0,0.2-0.2,0.4-0.4,0.4h-13.9c-0.2,0-0.4-0.2-0.4-0.4l0.1-38.9c0-0.2-0.2-0.4-0.4-0.4h-6.8
					c-0.2,0-0.4,0.2-0.4,0.4v39c0,0.2,0.2,0.4,0.4,0.4h6.7c0.2,0,0.4,0.2,0.4,0.4v6.7c0,0.2,0.2,0.4,0.4,0.4h13.9
					c0.2,0,0.4-0.2,0.4-0.4v-6.8c0-0.2,0.2-0.4,0.4-0.4h6.8c0.2,0,0.4,0.2,0.4,0.4v6.8c0,0.2,0.2,0.4,0.4,0.4h21
					c0.2,0,0.4-0.2,0.4-0.4V37.8c0-0.2-0.2-0.4-0.4-0.4h-6.8C318.8,37.4,318.6,37.5,318.6,37.7z"/>
			</g>
			<path class="st0" d="M94.2,61c0-10.4,7.1-17.5,17.2-17.5c10,0,17.2,7.1,17.2,17.5s-7.1,17.5-17.2,17.5S94.2,71.4,94.2,61z
				 M86.1,61c0,14.2,10.8,24.9,25.3,24.9s25.3-10.8,25.3-24.9s-10.8-25-25.3-25S86.1,46.8,86.1,61z"/>
			<path class="st0" d="M260.1,56.9h-22.5c-0.2,0-0.4-0.2-0.4-0.4V37.7c0-0.2-0.2-0.4-0.4-0.4h-7c-0.2,0-0.4,0.2-0.4,0.4v46.5
				c0,0.2,0.2,0.4,0.4,0.4h7c0.2,0,0.4-0.2,0.4-0.4V64.7c0-0.2,0.2-0.4,0.4-0.4h22.5c0.2,0,0.4,0.2,0.4,0.4v19.5
				c0,0.2,0.2,0.4,0.4,0.4h7c0.2,0,0.4-0.2,0.4-0.4V37.7c0-0.2-0.2-0.4-0.4-0.4h-7c-0.2,0-0.4,0.2-0.4,0.4v18.8
				C260.5,56.8,260.3,56.9,260.1,56.9z"/>
			<path class="st0" d="M186.2,44.8H201c0.2,0,0.4,0.2,0.4,0.4v39c0,0.2,0.2,0.4,0.4,0.4h7c0.2,0,0.4-0.2,0.4-0.4v-39
				c0-0.2,0.2-0.4,0.4-0.4h14.8c0.2,0,0.4-0.2,0.4-0.4v-6.7c0-0.2-0.2-0.4-0.4-0.4h-38c-0.2,0-0.4,0.2-0.4,0.4v6.7
				C185.9,44.6,186,44.8,186.2,44.8z"/>
			<path class="st0" d="M469.7,70.4c-0.2,0-0.4,0.2-0.4,0.4c0.6,2.7,1.6,5.2,3.2,7.3c2.7,3.9,7.8,7.8,16.6,7.8
				c11.8,0,18.5-6.7,18.5-14.5c0-10.2-11.1-12.3-19.3-14.7c-5-1.3-9-3.2-9-6.9s3-6.7,9.4-6.7c4.8,0,7.3,1.7,8.8,3.4
				c0.8,0.9,1.3,1.9,1.6,3.1c0,0.2,0.2,0.3,0.3,0.3h7.4c0.2,0,0.4-0.2,0.4-0.5c-0.6-2.4-1.6-4.5-3-6.4c-2.5-3.4-7.2-6.9-15.4-6.9
				c-10.8,0-17.5,6.8-17.5,14.2c0,10.4,11.1,12.6,19.3,14.8c5,1.3,9,3.1,9,6.8c0,4-3,7.1-10.4,7.1c-5.3,0-8.2-2.1-9.8-4.2
				c-0.9-1.1-1.5-2.5-1.9-4c0-0.2-0.2-0.3-0.3-0.3h-7.5V70.4z"/>
			<path class="st0" d="M173.4,76.6c0,0.2-0.2,0.4-0.4,0.4h-23.4c-0.2,0-0.4-0.2-0.4-0.4V37.8c0-0.2-0.2-0.4-0.4-0.4H142
				c-0.2,0-0.4,0.2-0.4,0.4v46.4c0,0.2,0.2,0.4,0.4,0.4h30.9c0.2,0,0.4-0.2,0.4-0.4v-6.8c0-0.2,0.2-0.4,0.4-0.4h5.5h1.4
				c0.2,0,0.4-0.2,0.4-0.4V37.7c0-0.2-0.2-0.4-0.4-0.4h-6.9c-0.2,0-0.4,0.2-0.4,0.4L173.4,76.6z"/>
			<path class="st0" d="M50.3,45.2h-6.8c-0.2,0-0.4,0.2-0.4,0.4v19.7c0,0.2,0.2,0.4,0.4,0.4h29.9c0.2,0,0.4,0.2,0.4,0.4v10.7
				c0,0.2-0.2,0.4-0.4,0.4H43.5c-0.2,0-0.4,0.2-0.4,0.4v6.8c0,0.2,0.2,0.4,0.4,0.4h29.8c0.2,0,0.4-0.2,0.4-0.4v-6.8
				c0-0.2,0.2-0.4,0.4-0.4h6.8c0.2,0,0.4-0.2,0.4-0.4V57.9c0-0.2-0.2-0.4-0.4-0.4H51c-0.2,0-0.4-0.2-0.4-0.4V45.5
				c0-0.2,0.2-0.4,0.4-0.4h29.9c0.2,0,0.4-0.2,0.4-0.4V38c0-0.2-0.2-0.4-0.4-0.4H51c-0.2,0-0.4,0.2-0.4,0.4v6.8
				C50.6,45,50.4,45.2,50.3,45.2z"/>
		</g>
	</g>
</g>
</svg>
