<svg xmlns="http://www.w3.org/2000/svg" xmlns:xlink="http://www.w3.org/1999/xlink" version="1.1" width="256" height="256" viewBox="0 0 256 256" xml:space="preserve">
<g style="stroke: none; stroke-width: 0; stroke-dasharray: none; stroke-linecap: butt; stroke-linejoin: miter; stroke-miterlimit: 10; fill: none; fill-rule: nonzero; opacity: 1;" transform="translate(1.4065934065934016 1.4065934065934016) scale(2.81 2.81)">
	<path d="M 45 0 C 20.147 0 0 20.147 0 45 c 0 24.853 20.147 45 45 45 s 45 -20.147 45 -45 C 90 20.147 69.853 0 45 0 z M 73.494 69.365 c -4.357 5.09 -10.051 8.996 -16.542 11.178 c -3.809 1.034 -7.815 1.59 -11.952 1.59 c -4.137 0 -8.142 -0.556 -11.952 -1.59 c -6.492 -2.182 -12.188 -6.09 -16.545 -11.182 V 55.233 V 22.687 c 0 -2.114 1.72 -3.833 3.834 -3.833 h 35.881 c 1.024 0 1.987 0.399 2.711 1.123 l 13.443 13.443 c 0.724 0.725 1.123 1.688 1.123 2.711 V 69.365 z" style="stroke: none; stroke-width: 1; stroke-dasharray: none; stroke-linecap: butt; stroke-linejoin: miter; stroke-miterlimit: 10; fill: rgb(0,0,0); fill-rule: nonzero; opacity: 1;" transform=" matrix(1 0 0 1 0 0) " stroke-linecap="round"/>
	<path d="M 68.18 33.977 l -9.81 -9.81 c -0.415 -0.416 -0.941 -0.678 -1.509 -0.774 v 9.462 c 0 1.451 1.18 2.631 2.631 2.631 h 9.462 C 68.858 34.919 68.596 34.393 68.18 33.977 z" style="stroke: none; stroke-width: 1; stroke-dasharray: none; stroke-linecap: butt; stroke-linejoin: miter; stroke-miterlimit: 10; fill: rgb(0,0,0); fill-rule: nonzero; opacity: 1;" transform=" matrix(1 0 0 1 0 0) " stroke-linecap="round"/>
	<path d="M 25.921 50.849 H 38.03 c 1.076 0 1.948 -0.872 1.948 -1.948 v -2.72 c 0 -3.69 -2.502 -6.789 -5.899 -7.714 c 1.377 -0.75 2.323 -2.193 2.323 -3.872 v -2.582 c 0 -2.444 -1.982 -4.426 -4.426 -4.426 s -4.426 1.982 -4.426 4.426 v 2.582 c 0 1.679 0.946 3.122 2.323 3.872 c -3.397 0.925 -5.899 4.023 -5.899 7.714 v 2.72 C 23.974 49.977 24.846 50.849 25.921 50.849 z" style="stroke: none; stroke-width: 1; stroke-dasharray: none; stroke-linecap: butt; stroke-linejoin: miter; stroke-miterlimit: 10; fill: rgb(0,0,0); fill-rule: nonzero; opacity: 1;" transform=" matrix(1 0 0 1 0 0) " stroke-linecap="round"/>
	<path d="M 47.575 51.053 h 18.451 c 0.553 0 1 -0.447 1 -1 s -0.447 -1 -1 -1 H 47.575 c -0.553 0 -1 0.447 -1 1 S 47.022 51.053 47.575 51.053 z" style="stroke: none; stroke-width: 1; stroke-dasharray: none; stroke-linecap: butt; stroke-linejoin: miter; stroke-miterlimit: 10; fill: rgb(0,0,0); fill-rule: nonzero; opacity: 1;" transform=" matrix(1 0 0 1 0 0) " stroke-linecap="round"/>
	<path d="M 66.026 67.62 H 33.551 c -0.552 0 -1 0.447 -1 1 s 0.448 1 1 1 h 32.475 c 0.553 0 1 -0.447 1 -1 S 66.579 67.62 66.026 67.62 z" style="stroke: none; stroke-width: 1; stroke-dasharray: none; stroke-linecap: butt; stroke-linejoin: miter; stroke-miterlimit: 10; fill: rgb(0,0,0); fill-rule: nonzero; opacity: 1;" transform=" matrix(1 0 0 1 0 0) " stroke-linecap="round"/>
	<path d="M 26.684 67.62 h -1.697 c -0.552 0 -1 0.447 -1 1 s 0.448 1 1 1 h 1.697 c 0.552 0 1 -0.447 1 -1 S 27.236 67.62 26.684 67.62 z" style="stroke: none; stroke-width: 1; stroke-dasharray: none; stroke-linecap: butt; stroke-linejoin: miter; stroke-miterlimit: 10; fill: rgb(0,0,0); fill-rule: nonzero; opacity: 1;" transform=" matrix(1 0 0 1 0 0) " stroke-linecap="round"/>
	<path d="M 66.026 59.191 H 33.551 c -0.552 0 -1 0.447 -1 1 s 0.448 1 1 1 h 32.475 c 0.553 0 1 -0.447 1 -1 S 66.579 59.191 66.026 59.191 z" style="stroke: none; stroke-width: 1; stroke-dasharray: none; stroke-linecap: butt; stroke-linejoin: miter; stroke-miterlimit: 10; fill: rgb(0,0,0); fill-rule: nonzero; opacity: 1;" transform=" matrix(1 0 0 1 0 0) " stroke-linecap="round"/>
	<path d="M 26.684 59.191 h -1.697 c -0.552 0 -1 0.447 -1 1 s 0.448 1 1 1 h 1.697 c 0.552 0 1 -0.447 1 -1 S 27.236 59.191 26.684 59.191 z" style="stroke: none; stroke-width: 1; stroke-dasharray: none; stroke-linecap: butt; stroke-linejoin: miter; stroke-miterlimit: 10; fill: rgb(0,0,0); fill-rule: nonzero; opacity: 1;" transform=" matrix(1 0 0 1 0 0) " stroke-linecap="round"/>
	<path d="M 47.575 42.624 h 9.18 c 0.553 0 1 -0.448 1 -1 s -0.447 -1 -1 -1 h -9.18 c -0.553 0 -1 0.448 -1 1 S 47.022 42.624 47.575 42.624 z" style="stroke: none; stroke-width: 1; stroke-dasharray: none; stroke-linecap: butt; stroke-linejoin: miter; stroke-miterlimit: 10; fill: rgb(0,0,0); fill-rule: nonzero; opacity: 1;" transform=" matrix(1 0 0 1 0 0) " stroke-linecap="round"/>
</g>
</svg>